<svg xmlns="http://www.w3.org/2000/svg" viewBox="0 0 512 512" width="512" height="512">
  <defs>
    <radialGradient id="glow" cx="50%" cy="58%" r="46%">
      <stop offset="0%" stop-color="#7c3aed" stop-opacity="0.5"/>
      <stop offset="100%" stop-color="#1e0747" stop-opacity="0"/>
    </radialGradient>
    <linearGradient id="headGrad" x1="30%" y1="0%" x2="70%" y2="100%">
      <stop offset="0%" stop-color="#22c55e"/>
      <stop offset="100%" stop-color="#15803d"/>
    </linearGradient>
    <linearGradient id="hornGrad" x1="0%" y1="0%" x2="100%" y2="100%">
      <stop offset="0%" stop-color="#c084fc"/>
      <stop offset="100%" stop-color="#7c3aed"/>
    </linearGradient>
    <linearGradient id="badgeGrad" x1="0%" y1="0%" x2="100%" y2="100%">
      <stop offset="0%" stop-color="#fde68a"/>
      <stop offset="100%" stop-color="#f59e0b"/>
    </linearGradient>
  </defs>
  <rect width="512" height="512" rx="108" fill="#1e0747"/>
  <rect width="512" height="512" rx="108" fill="url(#glow)"/>
  <polygon points="162,232 120,55 210,208" fill="url(#hornGrad)"/>
  <polygon points="350,232 392,55 302,208" fill="url(#hornGrad)"/>
  <polygon points="82,290 46,340 96,308" fill="#a855f7"/>
  <polygon points="430,290 466,340 416,308" fill="#a855f7"/>
  <circle cx="256" cy="308" r="174" fill="url(#headGrad)"/>
  <ellipse cx="256" cy="216" rx="110" ry="28" fill="#16a34a"/>
  <ellipse cx="256" cy="398" rx="82" ry="50" fill="#166534"/>
  <ellipse cx="232" cy="392" rx="11" ry="8" fill="#14532d"/>
  <ellipse cx="280" cy="392" rx="11" ry="8" fill="#14532d"/>
  <circle cx="190" cy="272" r="54" fill="white"/>
  <circle cx="322" cy="272" r="54" fill="white"/>
  <line x1="165" y1="247" x2="215" y2="297" stroke="#1e0747" stroke-width="15" stroke-linecap="round"/>
  <line x1="215" y1="247" x2="165" y2="297" stroke="#1e0747" stroke-width="15" stroke-linecap="round"/>
  <line x1="297" y1="247" x2="347" y2="297" stroke="#1e0747" stroke-width="15" stroke-linecap="round"/>
  <line x1="347" y1="247" x2="297" y2="297" stroke="#1e0747" stroke-width="15" stroke-linecap="round"/>
  <path d="M 188 415 Q 256 472 324 415" stroke="white" stroke-width="8" fill="none" stroke-linecap="round"/>
  <rect x="226" y="415" width="22" height="26" rx="5" fill="white"/>
  <rect x="259" y="415" width="22" height="26" rx="5" fill="white"/>
  <circle cx="256" cy="108" r="68" fill="url(#badgeGrad)"/>
  <circle cx="256" cy="108" r="60" fill="#f59e0b"/>
  <line x1="220" y1="72" x2="292" y2="144" stroke="#1e0747" stroke-width="20" stroke-linecap="round"/>
  <line x1="292" y1="72" x2="220" y2="144" stroke="#1e0747" stroke-width="20" stroke-linecap="round"/>
  <circle cx="80" cy="130" r="11" fill="#fde68a"/>
  <circle cx="62" cy="148" r="6" fill="#fde68a"/>
  <circle cx="100" cy="150" r="5" fill="#fde68a"/>
  <circle cx="432" cy="138" r="9" fill="#fde68a"/>
  <circle cx="450" cy="155" r="5" fill="#fde68a"/>
  <circle cx="414" cy="158" r="6" fill="#fde68a"/>
  <circle cx="72" cy="430" r="7" fill="#a78bfa"/>
  <circle cx="440" cy="425" r="6" fill="#a78bfa"/>
</svg>